<svg xmlns="http://www.w3.org/2000/svg" xmlns:xlink="http://www.w3.org/1999/xlink" width="300" height="170" viewBox="0 0 300 170">
  <defs>
    <clipPath id="clip-path">
      <path id="Path_5" data-name="Path 5" d="M0,0H319.213V208.336H0Z" fill="none"/>
    </clipPath>
    <clipPath id="clip-_4458_TRAV_passport_overlay_grey">
      <rect width="376" height="684"/>
    </clipPath>
  </defs>
  <g id="_4458_TRAV_passport_overlay_grey" data-name="grey" clip-path="url(#clip-_4458_TRAV_passport_overlay_grey)">
    <g id="Group_13" data-name="Group 13" transform="translate(-9 -32)">
      <g id="Mask_Group_1" data-name="Mask Group 1" clip-path="url(#clip-path)">
        <path id="Path_1" data-name="Path 1" d="M304.221,168.968H16.508a6.057,6.057,0,0,0-6.122,5.99v44.965a6.057,6.057,0,0,0,6.122,5.99H304.221a6.057,6.057,0,0,0,6.122-5.99V174.958a6.057,6.057,0,0,0-6.122-5.99M25.364,210.276a1.261,1.261,0,0,1-1.734.276l-5.853-4.126a1.2,1.2,0,0,1-.03-1.949l5.854-4.392a1.259,1.259,0,0,1,1.74.225,1.2,1.2,0,0,1-.229,1.7l-4.528,3.4,4.5,3.17a1.2,1.2,0,0,1,.281,1.7m0-15.733a1.26,1.26,0,0,1-1.734.275l-5.853-4.126a1.2,1.2,0,0,1-.03-1.949l5.854-4.392a1.259,1.259,0,0,1,1.74.224,1.2,1.2,0,0,1-.229,1.7l-4.528,3.4,4.5,3.172a1.2,1.2,0,0,1,.281,1.7m12.081,15.733a1.261,1.261,0,0,1-1.734.276l-5.853-4.126a1.2,1.2,0,0,1-.029-1.949l5.852-4.392a1.26,1.26,0,0,1,1.741.225,1.2,1.2,0,0,1-.23,1.7l-4.527,3.4,4.5,3.17a1.2,1.2,0,0,1,.281,1.7m0-15.733a1.26,1.26,0,0,1-1.734.275l-5.853-4.126a1.2,1.2,0,0,1-.029-1.949l5.852-4.392a1.26,1.26,0,0,1,1.741.224,1.2,1.2,0,0,1-.23,1.7l-4.527,3.4,4.5,3.172a1.2,1.2,0,0,1,.281,1.7m12.081,15.733a1.26,1.26,0,0,1-1.733.276l-5.854-4.126a1.2,1.2,0,0,1-.029-1.949l5.852-4.392a1.261,1.261,0,0,1,1.742.225,1.2,1.2,0,0,1-.23,1.7l-4.528,3.4,4.5,3.17a1.2,1.2,0,0,1,.281,1.7m0-15.733a1.259,1.259,0,0,1-1.733.275l-5.854-4.126a1.2,1.2,0,0,1-.029-1.949l5.852-4.392a1.262,1.262,0,0,1,1.742.224,1.2,1.2,0,0,1-.23,1.7l-4.528,3.4,4.5,3.172a1.2,1.2,0,0,1,.281,1.7m12.082,15.733a1.261,1.261,0,0,1-1.734.276l-5.853-4.126a1.2,1.2,0,0,1-.031-1.949l5.854-4.392a1.26,1.26,0,0,1,1.741.225,1.2,1.2,0,0,1-.23,1.7l-4.528,3.4,4.5,3.17a1.2,1.2,0,0,1,.282,1.7m0-15.733a1.26,1.26,0,0,1-1.734.275l-5.853-4.126a1.2,1.2,0,0,1-.031-1.949l5.854-4.392a1.26,1.26,0,0,1,1.741.224,1.2,1.2,0,0,1-.23,1.7l-4.528,3.4,4.5,3.172a1.2,1.2,0,0,1,.282,1.7M73.69,210.276a1.261,1.261,0,0,1-1.734.276L66.1,206.426a1.2,1.2,0,0,1-.03-1.949l5.853-4.392a1.26,1.26,0,0,1,1.741.225,1.2,1.2,0,0,1-.23,1.7l-4.528,3.4,4.5,3.17a1.2,1.2,0,0,1,.282,1.7m0-15.733a1.26,1.26,0,0,1-1.734.275L66.1,190.693a1.2,1.2,0,0,1-.03-1.949l5.853-4.392a1.26,1.26,0,0,1,1.741.224,1.2,1.2,0,0,1-.23,1.7l-4.528,3.4,4.5,3.172a1.2,1.2,0,0,1,.282,1.7m12.081,15.733a1.261,1.261,0,0,1-1.734.276l-5.854-4.126a1.2,1.2,0,0,1-.029-1.949l5.853-4.392a1.26,1.26,0,0,1,1.741.225,1.2,1.2,0,0,1-.23,1.7l-4.528,3.4,4.5,3.17a1.2,1.2,0,0,1,.282,1.7m0-15.733a1.26,1.26,0,0,1-1.734.275l-5.854-4.126a1.2,1.2,0,0,1-.029-1.949l5.853-4.392a1.26,1.26,0,0,1,1.741.224,1.2,1.2,0,0,1-.23,1.7l-4.528,3.4,4.5,3.172a1.2,1.2,0,0,1,.282,1.7m12.081,15.733a1.261,1.261,0,0,1-1.734.276l-5.853-4.126a1.2,1.2,0,0,1-.03-1.949l5.853-4.392a1.26,1.26,0,0,1,1.741.225,1.2,1.2,0,0,1-.23,1.7l-4.528,3.4,4.5,3.17a1.2,1.2,0,0,1,.282,1.7m0-15.733a1.26,1.26,0,0,1-1.734.275l-5.853-4.126a1.2,1.2,0,0,1-.03-1.949l5.853-4.392a1.26,1.26,0,0,1,1.741.224,1.2,1.2,0,0,1-.23,1.7l-4.528,3.4,4.5,3.172a1.2,1.2,0,0,1,.282,1.7m12.081,15.733a1.261,1.261,0,0,1-1.734.276l-5.853-4.126a1.2,1.2,0,0,1-.03-1.949l5.853-4.392a1.26,1.26,0,0,1,1.741.225,1.2,1.2,0,0,1-.23,1.7l-4.527,3.4,4.5,3.17a1.2,1.2,0,0,1,.282,1.7m0-15.733a1.26,1.26,0,0,1-1.734.275l-5.853-4.126a1.2,1.2,0,0,1-.03-1.949l5.853-4.392a1.26,1.26,0,0,1,1.741.224,1.2,1.2,0,0,1-.23,1.7l-4.527,3.4,4.5,3.172a1.2,1.2,0,0,1,.282,1.7m12.081,15.733a1.261,1.261,0,0,1-1.734.276l-5.853-4.126a1.2,1.2,0,0,1-.03-1.949l5.854-4.392a1.259,1.259,0,0,1,1.74.225,1.2,1.2,0,0,1-.229,1.7l-4.528,3.4,4.5,3.17a1.2,1.2,0,0,1,.281,1.7m0-15.733a1.26,1.26,0,0,1-1.734.275l-5.853-4.126a1.2,1.2,0,0,1-.03-1.949l5.854-4.392a1.259,1.259,0,0,1,1.74.224,1.2,1.2,0,0,1-.229,1.7l-4.528,3.4,4.5,3.172a1.2,1.2,0,0,1,.281,1.7M134.1,210.276a1.26,1.26,0,0,1-1.733.276l-5.854-4.126a1.2,1.2,0,0,1-.03-1.949l5.854-4.392a1.26,1.26,0,0,1,1.741.225,1.2,1.2,0,0,1-.23,1.7l-4.528,3.4,4.5,3.17a1.2,1.2,0,0,1,.281,1.7m0-15.733a1.259,1.259,0,0,1-1.733.275l-5.854-4.126a1.2,1.2,0,0,1-.03-1.949l5.854-4.392a1.26,1.26,0,0,1,1.741.224,1.2,1.2,0,0,1-.23,1.7l-4.528,3.4,4.5,3.172a1.2,1.2,0,0,1,.281,1.7m12.082,15.733a1.261,1.261,0,0,1-1.734.276l-5.854-4.126a1.2,1.2,0,0,1-.03-1.949l5.854-4.392a1.26,1.26,0,0,1,1.741.225,1.2,1.2,0,0,1-.23,1.7l-4.528,3.4,4.5,3.17a1.2,1.2,0,0,1,.282,1.7m0-15.733a1.26,1.26,0,0,1-1.734.275l-5.854-4.126a1.2,1.2,0,0,1-.03-1.949l5.854-4.392a1.26,1.26,0,0,1,1.741.224,1.2,1.2,0,0,1-.23,1.7l-4.528,3.4,4.5,3.172a1.2,1.2,0,0,1,.282,1.7m12.081,15.733a1.261,1.261,0,0,1-1.734.276l-5.853-4.126a1.2,1.2,0,0,1-.03-1.949l5.853-4.392a1.26,1.26,0,0,1,1.741.225,1.2,1.2,0,0,1-.23,1.7l-4.528,3.4,4.5,3.17a1.2,1.2,0,0,1,.282,1.7m0-15.733a1.26,1.26,0,0,1-1.734.275l-5.853-4.126a1.2,1.2,0,0,1-.03-1.949l5.853-4.392a1.261,1.261,0,0,1,1.741.224,1.2,1.2,0,0,1-.23,1.7l-4.528,3.4,4.5,3.172a1.2,1.2,0,0,1,.282,1.7m12.08,15.733a1.248,1.248,0,0,1-1.009.5,1.261,1.261,0,0,1-.725-.229l-5.852-4.126a1.2,1.2,0,0,1-.03-1.949l5.853-4.392a1.26,1.26,0,0,1,1.741.225,1.2,1.2,0,0,1-.23,1.7l-4.528,3.4,4.5,3.17a1.2,1.2,0,0,1,.281,1.7m0-15.733a1.26,1.26,0,0,1-1.734.275l-5.852-4.126a1.2,1.2,0,0,1-.03-1.949l5.853-4.392a1.261,1.261,0,0,1,1.741.224,1.2,1.2,0,0,1-.23,1.7l-4.528,3.4,4.5,3.172a1.2,1.2,0,0,1,.281,1.7m12.082,15.733a1.261,1.261,0,0,1-1.734.276l-5.853-4.126a1.2,1.2,0,0,1-.03-1.949l5.853-4.392a1.26,1.26,0,0,1,1.741.225,1.2,1.2,0,0,1-.23,1.7l-4.528,3.4,4.5,3.17a1.2,1.2,0,0,1,.282,1.7m0-15.733a1.26,1.26,0,0,1-1.734.275l-5.853-4.126a1.2,1.2,0,0,1-.03-1.949l5.853-4.392a1.261,1.261,0,0,1,1.741.224,1.2,1.2,0,0,1-.23,1.7l-4.528,3.4,4.5,3.172a1.2,1.2,0,0,1,.282,1.7M194.5,210.276a1.261,1.261,0,0,1-1.734.276l-5.853-4.126a1.2,1.2,0,0,1-.03-1.949l5.853-4.392a1.26,1.26,0,0,1,1.741.225,1.2,1.2,0,0,1-.23,1.7l-4.527,3.4,4.5,3.17a1.2,1.2,0,0,1,.281,1.7m0-15.733a1.26,1.26,0,0,1-1.734.275l-5.853-4.126a1.2,1.2,0,0,1-.03-1.949l5.853-4.392a1.26,1.26,0,0,1,1.741.224,1.2,1.2,0,0,1-.23,1.7l-4.527,3.4,4.5,3.172a1.2,1.2,0,0,1,.281,1.7m12.081,15.733a1.261,1.261,0,0,1-1.734.276L199,206.426a1.2,1.2,0,0,1-.03-1.949l5.853-4.392a1.26,1.26,0,0,1,1.741.225,1.2,1.2,0,0,1-.23,1.7l-4.527,3.4,4.5,3.17a1.2,1.2,0,0,1,.282,1.7m0-15.733a1.26,1.26,0,0,1-1.734.275L199,190.693a1.2,1.2,0,0,1-.03-1.949l5.853-4.392a1.26,1.26,0,0,1,1.741.224,1.2,1.2,0,0,1-.23,1.7l-4.527,3.4,4.5,3.172a1.2,1.2,0,0,1,.282,1.7m12.081,15.733a1.261,1.261,0,0,1-1.734.276l-5.853-4.126a1.2,1.2,0,0,1-.03-1.949l5.853-4.392a1.26,1.26,0,0,1,1.741.225,1.2,1.2,0,0,1-.229,1.7l-4.528,3.4,4.5,3.17a1.2,1.2,0,0,1,.282,1.7m0-15.733a1.26,1.26,0,0,1-1.734.275l-5.853-4.126a1.2,1.2,0,0,1-.03-1.949l5.853-4.392a1.26,1.26,0,0,1,1.741.224,1.2,1.2,0,0,1-.229,1.7l-4.528,3.4,4.5,3.172a1.2,1.2,0,0,1,.282,1.7m12.081,15.733a1.261,1.261,0,0,1-1.734.276l-5.853-4.126a1.2,1.2,0,0,1-.03-1.949l5.854-4.392a1.259,1.259,0,0,1,1.74.225,1.2,1.2,0,0,1-.23,1.7l-4.528,3.4,4.5,3.17a1.2,1.2,0,0,1,.281,1.7m0-15.733a1.26,1.26,0,0,1-1.734.275l-5.853-4.126a1.2,1.2,0,0,1-.03-1.949l5.854-4.392a1.259,1.259,0,0,1,1.74.224,1.2,1.2,0,0,1-.23,1.7l-4.528,3.4,4.5,3.172a1.2,1.2,0,0,1,.281,1.7m12.081,15.733a1.261,1.261,0,0,1-1.734.276l-5.853-4.126a1.2,1.2,0,0,1-.029-1.949l5.852-4.392a1.26,1.26,0,0,1,1.741.225,1.2,1.2,0,0,1-.23,1.7l-4.527,3.4,4.5,3.17a1.2,1.2,0,0,1,.281,1.7m0-15.733a1.26,1.26,0,0,1-1.734.275l-5.853-4.126a1.2,1.2,0,0,1-.029-1.949l5.852-4.392a1.26,1.26,0,0,1,1.741.224,1.2,1.2,0,0,1-.23,1.7l-4.527,3.4,4.5,3.172a1.2,1.2,0,0,1,.281,1.7m12.082,15.733a1.261,1.261,0,0,1-1.734.276l-5.854-4.126a1.2,1.2,0,0,1-.03-1.949l5.854-4.392a1.26,1.26,0,0,1,1.741.225,1.2,1.2,0,0,1-.23,1.7l-4.528,3.4,4.5,3.17a1.2,1.2,0,0,1,.282,1.7m0-15.733a1.26,1.26,0,0,1-1.734.275l-5.854-4.126a1.2,1.2,0,0,1-.03-1.949l5.854-4.392a1.26,1.26,0,0,1,1.741.224,1.2,1.2,0,0,1-.23,1.7l-4.528,3.4,4.5,3.172a1.2,1.2,0,0,1,.282,1.7m12.081,15.733a1.261,1.261,0,0,1-1.734.276l-5.853-4.126a1.2,1.2,0,0,1-.031-1.949l5.854-4.392a1.26,1.26,0,0,1,1.741.225,1.2,1.2,0,0,1-.23,1.7l-4.528,3.4,4.5,3.17a1.2,1.2,0,0,1,.282,1.7m0-15.733a1.26,1.26,0,0,1-1.734.275l-5.853-4.126a1.2,1.2,0,0,1-.031-1.949l5.854-4.392a1.26,1.26,0,0,1,1.741.224,1.2,1.2,0,0,1-.23,1.7l-4.528,3.4,4.5,3.172a1.2,1.2,0,0,1,.282,1.7m12.081,15.733a1.261,1.261,0,0,1-1.734.276l-5.853-4.126a1.2,1.2,0,0,1-.03-1.949l5.853-4.392a1.26,1.26,0,0,1,1.741.225,1.2,1.2,0,0,1-.23,1.7l-4.528,3.4,4.5,3.17a1.2,1.2,0,0,1,.282,1.7m0-15.733a1.26,1.26,0,0,1-1.734.275l-5.853-4.126a1.2,1.2,0,0,1-.03-1.949l5.853-4.392a1.261,1.261,0,0,1,1.741.224,1.2,1.2,0,0,1-.23,1.7l-4.528,3.4,4.5,3.172a1.2,1.2,0,0,1,.282,1.7m12.081,15.733a1.261,1.261,0,0,1-1.734.276l-5.853-4.126a1.2,1.2,0,0,1-.03-1.949l5.853-4.392a1.26,1.26,0,0,1,1.741.225,1.2,1.2,0,0,1-.23,1.7l-4.528,3.4,4.5,3.17a1.2,1.2,0,0,1,.282,1.7m0-15.733a1.26,1.26,0,0,1-1.734.275l-5.853-4.126a1.2,1.2,0,0,1-.03-1.949l5.853-4.392a1.26,1.26,0,0,1,1.741.224,1.2,1.2,0,0,1-.23,1.7l-4.528,3.4,4.5,3.172a1.2,1.2,0,0,1,.282,1.7m12.081,15.733a1.261,1.261,0,0,1-1.734.276l-5.853-4.126a1.2,1.2,0,0,1-.03-1.949l5.853-4.392a1.26,1.26,0,0,1,1.741.225,1.2,1.2,0,0,1-.23,1.7l-4.528,3.4,4.5,3.17a1.2,1.2,0,0,1,.282,1.7m0-15.733a1.26,1.26,0,0,1-1.734.275l-5.853-4.126a1.2,1.2,0,0,1-.03-1.949l5.853-4.392a1.261,1.261,0,0,1,1.741.224,1.2,1.2,0,0,1-.23,1.7l-4.528,3.4,4.5,3.172a1.2,1.2,0,0,1,.282,1.7" transform="translate(-1.486 -27.304)" fill="#c6c6c6"/>
      </g>
    </g>
  </g>
</svg>
